<svg width="130" height="41" viewBox="0 0 130 41" fill="none" xmlns="http://www.w3.org/2000/svg">
<g clip-path="url(#clip0_1_2413)">
<path d="M63.7263 3.17014H67.0325V13.6806C67.0325 15.5321 66.4728 16.9544 65.3109 17.9013C64.0411 18.8453 62.5013 19.355 60.9194 19.355C59.3374 19.355 57.7976 18.8453 56.5278 17.9013C55.3659 16.9544 54.8062 15.5321 54.8062 13.6806V3.17014H58.1205V13.6806C58.1205 14.7564 58.3802 15.4938 58.8957 15.9632C59.4865 16.4234 60.2139 16.6733 60.9626 16.6733C61.7114 16.6733 62.4388 16.4234 63.0296 15.9632C63.545 15.4898 63.7605 14.7141 63.7605 13.6806L63.7263 3.17014ZM74.3176 9.58884C73.9108 9.56766 73.5062 9.66148 73.1501 9.85957C72.794 10.0577 72.5008 10.352 72.3041 10.709V19.1081H69.1065V7.26191H72.0786L72.1651 8.59763C72.5703 8.08702 73.0883 7.67737 73.6784 7.40086C74.2685 7.12435 74.9146 6.98852 75.5661 7.00403C76.0614 6.97987 76.5565 7.05512 77.0223 7.22535C77.4881 7.39558 77.9152 7.65735 78.2783 7.99524C78.967 8.68426 79.3113 9.84671 79.3113 11.5269V19.0658H76.1258V11.5692C76.1258 10.7936 75.9527 10.2779 75.6506 10.018C75.4687 9.86038 75.2569 9.74115 75.0279 9.66741C74.7988 9.59367 74.5573 9.56695 74.3176 9.58884ZM81.4638 4.20366C81.463 3.76906 81.6329 3.35155 81.937 3.0412C82.3036 2.74776 82.7592 2.5879 83.2287 2.5879C83.6982 2.5879 84.1537 2.74776 84.5204 3.0412C84.6788 3.18906 84.8031 3.3696 84.8848 3.57033C84.9666 3.77105 85.0037 3.98716 84.9936 4.20366C84.9944 4.63825 84.8245 5.05576 84.5204 5.36611C84.1537 5.65955 83.6982 5.81941 83.2287 5.81941C82.7592 5.81941 82.3036 5.65955 81.937 5.36611C81.6329 5.05576 81.463 4.63825 81.4638 4.20366ZM84.8647 7.26191V19.1081H81.6793V7.26191H84.8647ZM93.0881 19.0658C92.4781 19.2726 91.8374 19.3741 91.1934 19.366C90.2901 19.4007 89.4044 19.1105 88.6965 18.548C88.0938 18.0296 87.7925 17.125 87.7925 15.8343V9.58884H86.0266V7.26191H87.7925V4.33259H90.9779V7.26191H93.0076V9.58884H90.9779V15.5321C90.9508 15.7094 90.9639 15.8905 91.0162 16.0621C91.0684 16.2337 91.1586 16.3913 91.28 16.5233C91.5507 16.6935 91.8643 16.783 92.1841 16.7812C92.357 16.7881 92.5301 16.7739 92.6995 16.7389C92.8727 16.7389 93.0016 16.6966 93.0881 16.6966V19.0658ZM104.539 17.2123C104.081 17.8225 103.493 18.3228 102.818 18.677C101.926 19.137 100.936 19.3735 99.9323 19.366C98.0818 19.366 96.6179 18.8059 95.585 17.6858C94.5547 16.5933 93.9974 15.1379 94.0345 13.6363V13.2072C93.9575 11.6035 94.4972 10.0312 95.5427 8.81319C96.0421 8.2377 96.6658 7.78351 97.3667 7.48506C98.0676 7.18661 98.8272 7.05174 99.5879 7.09066C101.312 7.09066 102.608 7.60641 103.464 8.68426C104.32 9.7621 104.797 11.1824 104.797 12.905V14.2407H97.2643C97.3395 14.9448 97.6595 15.6 98.1684 16.0922C98.4364 16.3322 98.7493 16.5168 99.0891 16.635C99.4288 16.7533 99.7887 16.803 100.148 16.7812C100.695 16.8124 101.241 16.7067 101.737 16.4734C102.234 16.2402 102.664 15.8869 102.989 15.4454L104.539 17.2123ZM99.5457 9.58884C99.2507 9.5684 98.9551 9.62051 98.6849 9.74061C98.4146 9.86071 98.1778 10.0452 97.9952 10.2779C97.6048 10.7939 97.3531 11.4016 97.2643 12.0427H101.666V11.7848C101.666 11.2122 101.485 10.6543 101.148 10.1912C100.945 9.97562 100.694 9.80932 100.417 9.70494C100.139 9.60057 99.841 9.56086 99.5457 9.58884ZM113.625 19.1504L113.451 17.9013C113.103 18.349 112.663 18.7166 112.161 18.9792C111.284 19.3859 110.294 19.475 109.359 19.2313C108.424 18.9877 107.603 18.4263 107.036 17.6434C106.177 16.3769 105.753 14.865 105.828 13.3361V13.1205C105.828 11.3073 106.215 9.84671 107.036 8.72656C107.423 8.1796 107.942 7.73896 108.544 7.44531C109.146 7.15166 109.812 7.01445 110.481 7.04634C111.024 7.02114 111.564 7.12528 112.058 7.35017C112.552 7.57505 112.985 7.91424 113.323 8.33975V2.30786H116.508V19.1504H113.625ZM108.973 13.3361C108.928 14.1737 109.106 15.0082 109.491 15.7537C109.653 16.076 109.908 16.3425 110.222 16.5191C110.537 16.6957 110.897 16.7743 111.257 16.7449C111.681 16.7648 112.102 16.6612 112.469 16.4467C112.835 16.2322 113.132 15.9159 113.323 15.5361V10.842C113.143 10.4503 112.85 10.1217 112.482 9.89896C112.113 9.67618 111.686 9.56953 111.257 9.59287C110.893 9.57073 110.531 9.65714 110.217 9.84115C109.902 10.0252 109.65 10.2985 109.491 10.6264C109.107 11.4009 108.929 12.2612 108.973 13.1246V13.3361ZM67.8964 22.253V38.2332H64.6304L58.2151 27.6805V38.2332H54.9008V22.253H58.2151L64.6304 32.8058V22.253H67.8964ZM77.1588 38.2332C76.9928 37.8963 76.8904 37.5316 76.8568 37.1574C76.5234 37.542 76.1114 37.8504 75.6486 38.062C74.8927 38.3971 74.0592 38.518 73.2393 38.4114C72.4194 38.3048 71.6445 37.9749 70.9993 37.4576C70.6271 37.1476 70.3296 36.7577 70.1288 36.3168C69.928 35.876 69.8291 35.3955 69.8395 34.9111C69.8169 34.354 69.9305 33.7999 70.1705 33.2968C70.4105 32.7937 70.7697 32.3568 71.2167 32.0241C72.1208 31.3351 73.4981 30.9906 75.3063 30.9906H76.7279V30.3015C76.7577 29.8179 76.6038 29.3408 76.297 28.9658C76.123 28.7935 75.9131 28.6616 75.6824 28.5798C75.4516 28.498 75.2056 28.4681 74.962 28.4924C73.8424 28.4924 73.2827 28.9665 73.2827 29.9147H70.0972C70.1064 29.3952 70.2355 28.8849 70.4744 28.4236C70.7133 27.9623 71.0556 27.5624 71.4745 27.2554C72.5377 26.488 73.8248 26.0942 75.1352 26.1352C76.3529 26.0861 77.5514 26.4503 78.5361 27.1687C79.4402 27.8578 79.8711 28.8913 79.8711 30.3136V35.314C79.8709 35.8625 79.914 36.4102 79.9999 36.9519C80.0688 37.3236 80.1845 37.6851 80.3443 38.0278V38.2433L77.1588 38.2332ZM74.5411 36.0373C75.0213 36.0306 75.4935 35.9127 75.9204 35.6928C76.2512 35.5036 76.5316 35.2376 76.738 34.9171V32.8481H75.4452C74.787 32.7999 74.1326 32.983 73.5948 33.3658C73.4087 33.5267 73.2587 33.7251 73.1546 33.948C73.0505 34.1709 72.9947 34.4132 72.9907 34.6592C72.9857 34.8416 73.0174 35.0231 73.0838 35.193C73.1502 35.363 73.25 35.5178 73.3773 35.6484C73.7135 35.8981 74.1204 36.0343 74.5391 36.0373H74.5411ZM88.018 38.1466C87.7363 38.2392 87.4483 38.3113 87.1562 38.3622C86.814 38.413 86.469 38.442 86.1232 38.4488C85.2201 38.4826 84.3346 38.1925 83.6264 37.6309C83.0236 37.1124 82.7223 36.2078 82.7223 34.9171V28.6656H80.9463V26.3448H82.7122V23.4154H85.8977V26.3448H87.9113V28.6656H85.8977V34.6089C85.8706 34.7862 85.8836 34.9673 85.9359 35.1389C85.9882 35.3105 86.0783 35.4681 86.1997 35.6001C86.4708 35.7694 86.7842 35.8588 87.1038 35.858C87.2767 35.8649 87.4498 35.8507 87.6193 35.8157C87.7925 35.8157 87.9213 35.7713 88.0079 35.7713L88.018 38.1466ZM89.353 23.2865C89.3521 22.8519 89.5221 22.4344 89.8262 22.124C90.1928 21.8306 90.6483 21.6707 91.1179 21.6707C91.5874 21.6707 92.0429 21.8306 92.4096 22.124C92.7195 22.4404 92.8931 22.8657 92.8931 23.3087C92.8931 23.7516 92.7195 24.1769 92.4096 24.4933C92.0425 24.7857 91.5871 24.9449 91.1179 24.9449C90.6486 24.9449 90.1933 24.7857 89.8262 24.4933C89.6601 24.3414 89.5304 24.1541 89.4468 23.9451C89.3631 23.7362 89.3276 23.5111 89.3429 23.2865H89.353ZM92.7096 26.3448V38.2312H89.514V26.3448H92.7096ZM94.5218 32.4189V32.2034C94.4791 30.6386 94.9985 29.1104 95.9857 27.896C96.9763 26.7316 98.3536 26.1715 100.12 26.1715C101.932 26.1715 103.305 26.7316 104.296 27.896C105.284 29.11 105.803 30.6385 105.76 32.2034V32.4189C105.798 33.9846 105.275 35.5122 104.284 36.7243C103.293 37.8867 101.916 38.4468 100.15 38.4468C98.3375 38.4468 96.9643 37.8867 95.9736 36.7243C94.9871 35.5095 94.4678 33.9816 94.5097 32.4169L94.5218 32.4189ZM97.7093 32.1591V32.3746C97.6725 33.2286 97.8658 34.0769 98.2691 34.8305C98.4755 35.1443 98.7566 35.4019 99.0872 35.5801C99.4177 35.7583 99.7873 35.8516 100.163 35.8516C100.538 35.8516 100.908 35.7583 101.238 35.5801C101.569 35.4019 101.85 35.1443 102.057 34.8305C102.435 34.0677 102.627 33.226 102.616 32.3746V32.1591C102.647 31.3063 102.454 30.4603 102.057 29.7052C101.877 29.3657 101.602 29.0866 101.265 28.9028C100.928 28.719 100.544 28.6386 100.162 28.6717C99.781 28.6479 99.4013 28.7323 99.0664 28.9152C98.7315 29.0981 98.4551 29.3719 98.2691 29.7052C97.8752 30.4616 97.6824 31.3066 97.7093 32.1591ZM112.539 28.714C112.128 28.6929 111.719 28.7912 111.361 28.997C111.004 29.2029 110.714 29.5075 110.526 29.8744V38.2312H107.338V26.3448H110.308L110.437 27.7228C110.84 27.2093 111.358 26.7976 111.949 26.5208C112.54 26.244 113.188 26.1099 113.84 26.1292C114.342 26.1022 114.844 26.1759 115.317 26.3462C115.791 26.5164 116.225 26.7796 116.595 27.1204C117.283 27.8094 117.628 28.9719 117.628 30.6521V38.2332H114.442V30.6521C114.442 29.8764 114.269 29.3607 113.969 29.1008C113.554 28.8109 113.052 28.6742 112.547 28.714H112.539ZM126.153 34.9111C126.155 34.7385 126.113 34.5682 126.029 34.417C125.946 34.2658 125.825 34.139 125.678 34.0488C125.079 33.7125 124.421 33.493 123.741 33.4021C122.664 33.2013 121.638 32.7905 120.72 32.1933C120.333 31.9349 120.019 31.5814 119.807 31.1665C119.596 30.7517 119.494 30.2894 119.512 29.8241C119.519 29.3282 119.634 28.8398 119.85 28.3932C120.066 27.9467 120.377 27.5528 120.761 27.2393C121.622 26.5059 122.74 26.1191 124.248 26.1191C125.756 26.1191 127.003 26.4636 127.907 27.197C128.331 27.5211 128.674 27.9401 128.907 28.4204C129.141 28.9007 129.259 29.429 129.252 29.9631H126.066C126.074 29.7569 126.04 29.5513 125.966 29.3587C125.892 29.1662 125.779 28.9907 125.635 28.8429C125.248 28.5291 124.755 28.3749 124.258 28.4118C123.815 28.3779 123.373 28.4997 123.01 28.7563C122.877 28.8675 122.771 29.0058 122.696 29.1618C122.622 29.3179 122.582 29.488 122.579 29.6609C122.576 29.8333 122.618 30.0035 122.701 30.1547C122.784 30.3059 122.905 30.4329 123.052 30.5232C123.585 30.818 124.169 31.0082 124.774 31.0832C125.892 31.2954 126.969 31.688 127.961 32.2457C128.821 32.7635 129.252 33.6237 129.252 34.7882C129.247 35.2936 129.124 35.7909 128.892 36.2399C128.661 36.6889 128.326 37.077 127.917 37.373C127.013 38.062 125.809 38.4065 124.258 38.4065C122.621 38.4065 121.33 37.9754 120.469 37.1131C120.071 36.7778 119.746 36.3635 119.517 35.8964C119.287 35.4293 119.156 34.9195 119.134 34.3994H122.154C122.155 34.6606 122.218 34.9179 122.338 35.1501C122.457 35.3823 122.63 35.5828 122.843 35.7351C123.293 36.0182 123.82 36.1535 124.351 36.1219C125.513 36.2085 126.163 35.7774 126.163 34.9131L126.153 34.9111Z" fill="#212427"/>
<path d="M37.9809 36.5577C36.7383 37.1656 35.3259 37.3326 33.9759 37.0311C33.0578 36.8215 32.1637 36.5177 31.3079 36.1245L29.4132 35.3509C27.7651 34.8342 26.0054 34.7889 24.3329 35.22H24.1598C22.4924 34.7456 20.7202 34.7913 19.0795 35.3509C18.4352 35.5665 17.8311 35.8667 17.1868 36.1245C16.3284 36.5237 15.4345 36.8414 14.5168 37.0734C13.1672 37.3712 11.7567 37.2044 10.5138 36.6L10.3406 36.5134C10.2983 36.5134 10.2983 36.5134 10.2983 36.5557C11.1252 37.4093 12.1697 38.0203 13.3187 38.3225C14.09 38.5294 14.8936 38.5875 15.6867 38.4938C16.8914 38.3308 18.0415 37.8886 19.0453 37.2024L20.8575 35.9936C21.5325 35.5591 22.3507 35.4065 23.1369 35.5685C23.5678 35.6108 23.2234 35.8264 23.1812 35.8687C22.0959 36.3912 21.0687 37.0266 20.1165 37.7645C19.4701 38.2379 18.3043 39.3581 18.3043 39.3581L19.1641 40.0914L20.1125 39.0559C21.2762 37.8483 22.6107 36.8179 24.0732 35.9976C24.1292 35.9564 24.1969 35.9341 24.2665 35.9341C24.336 35.9341 24.4038 35.9564 24.4598 35.9976C25.9223 36.8179 27.2567 37.8483 28.4205 39.0559L29.3689 40.0914L30.2287 39.3581L28.4164 37.7645C27.4668 37.0271 26.4423 36.3917 25.3598 35.8687C25.2733 35.8264 24.9732 35.6108 25.4041 35.5685C26.1914 35.4073 27.0105 35.5614 27.6855 35.9976L29.4977 37.2064C30.5008 37.8926 31.6502 38.3349 32.8543 38.4978C33.6474 38.5916 34.451 38.5335 35.2223 38.3266C36.3568 37.99 37.393 37.3838 38.2427 36.5597C38.2193 36.5364 38.1888 36.5215 38.1561 36.5174L37.9849 36.5597M42.2033 32.8124C41.6574 33.2292 41.0446 33.5501 40.3911 33.7613C39.468 34.0329 38.5121 34.1773 37.55 34.1905C36.3113 34.2271 35.0753 34.3279 33.847 34.4927C33.7605 34.4927 33.7182 34.4927 33.7605 34.4503C34.8327 34.0109 35.6969 33.1787 36.1767 32.1234L37.3849 29.6676V29.5829C37.3003 29.6252 36.0942 30.6588 35.5344 31.1765L33.5208 33.1569C32.6115 33.9354 31.5364 34.4956 30.3777 34.7949H30.3354L30.2931 34.8372L32.6006 35.3952C33.5969 35.6894 34.6215 35.8772 35.6572 35.9553C36.9388 36.0813 38.2307 35.8599 39.3973 35.3144C40.564 34.7688 41.5624 33.9193 42.2879 32.8547C42.2879 32.8104 42.2456 32.8104 42.2013 32.8104M45.9909 27.0384C45.3779 27.7801 44.6514 28.4199 43.8384 28.9342C43.145 29.4042 42.4096 29.8088 41.6416 30.143C40.6639 30.5383 39.7499 31.076 38.9293 31.7386L38.7581 31.8676C38.7138 31.8676 38.7138 31.8676 38.7138 31.8232C38.7138 31.7789 40.0065 30.4895 40.3932 27.7758C40.4495 26.8024 40.5938 25.8362 40.8241 24.8888V24.8022C39.9303 25.9109 39.2316 27.1638 38.7581 28.5071L37.9829 30.7031C37.6724 31.6925 37.1257 32.5915 36.3902 33.3221L36.3036 33.4068V33.4511C36.3902 33.4511 36.4747 33.4068 36.5613 33.4068L39.0582 32.891C40.4303 32.6698 41.7296 32.1234 42.8477 31.2974C43.9944 30.4683 44.9247 29.3751 45.56 28.1102C45.7215 27.7728 45.8654 27.4271 45.9909 27.0747C46.0754 26.9901 46.0332 26.9901 45.9909 27.0324M47.6259 20.5714C47.2283 21.7507 46.5488 22.8151 45.6466 23.6719C44.6204 24.6739 43.6707 25.7514 42.8054 26.8954C42.8054 26.9377 42.7188 26.8954 42.7611 26.8531C43.1065 25.6644 43.1944 24.4158 43.0188 23.1904C42.8477 22.1569 42.4148 21.0368 42.2879 19.7877L42.2456 19.7454C42.2456 19.7877 42.2013 19.83 42.2013 19.8743C41.9426 20.6867 41.7698 21.524 41.6859 22.3725C41.6416 23.406 41.8147 24.7417 41.7281 25.7752C41.6416 26.984 41.555 28.2311 40.9972 29.3069V29.3936L43.5786 27.8C44.6419 27.1279 45.5639 26.2547 46.2929 25.2293C47.2252 23.9068 47.7182 22.3246 47.7024 20.7064V20.5331C47.6695 20.5382 47.6392 20.5537 47.6158 20.5774" fill="#212427"/>
<path d="M44.8714 21.2591C44.8787 20.914 44.8639 20.5688 44.8271 20.2256C44.7425 19.0168 44.0096 18.0276 43.3632 17.0022C42.9263 16.3423 42.5379 15.6515 42.2014 14.9351C42.178 14.9118 42.1475 14.8969 42.1148 14.8928C42.1113 15.1233 42.1261 15.3537 42.1591 15.5818C42.3761 17.3233 42.8097 19.0309 43.4498 20.6648C43.8261 21.6797 43.9726 22.7655 43.8787 23.8439C43.8787 23.9306 43.8787 23.9306 43.921 23.9729C44.3096 23.4128 45.0848 22.6371 45.558 22.0348C46.0312 21.4324 48.6146 18.5031 47.3702 14.4536C47.3175 14.2737 47.2453 14.1 47.1548 13.9358L47.1125 13.9802C47.1125 16.9075 45.6909 18.1586 45.1311 20.139C45.0225 20.5068 44.9365 20.8808 44.8734 21.2591M44.9157 15.2292L44.6579 14.5382L44.4828 14.1575C44.0509 13.3731 43.448 12.6963 42.7189 12.177C42.1247 11.6769 41.6028 11.0965 41.1684 10.4525H41.0395C41.0818 10.5814 41.4705 11.8748 41.7282 12.4772C42.1536 13.3101 42.6739 14.0909 43.2786 14.8042L43.4075 14.9754C44.1328 15.9551 44.6995 17.0429 45.0868 18.1989C45.0868 18.2101 45.0913 18.2208 45.0992 18.2288C45.1071 18.2367 45.1179 18.2412 45.1291 18.2412L45.862 16.0009C46.1228 15.208 46.3379 14.4008 46.5064 13.5833C46.7661 11.6452 46.1621 9.1893 45.0425 7.81128C45.0192 7.83467 45.0044 7.86514 45.0002 7.89791L45.0425 8.06915L45.1291 8.32905C45.3585 9.37765 45.3729 10.4619 45.1714 11.5162C45.0137 12.3535 44.9422 13.2048 44.958 14.0567C44.958 14.1857 45.0425 15.2655 45.0425 15.3058C45.0425 15.3461 45.0002 15.3058 44.958 15.3058M41.4624 4.41658C41.8208 4.75412 42.1 5.16695 42.2799 5.62537C42.5819 6.3567 42.6665 7.43857 42.884 8.24443L43.2726 9.66476C43.2726 9.70909 43.2283 9.75139 43.186 9.70909C42.5326 8.93017 41.7441 8.27566 40.8583 7.77703C40.2803 7.42578 39.7701 6.97333 39.3522 6.44131L39.1367 6.13911C39.1311 6.13332 39.1244 6.12872 39.1169 6.12558C39.1095 6.12244 39.1015 6.12082 39.0934 6.12082C39.0854 6.12082 39.0774 6.12244 39.0699 6.12558C39.0625 6.12872 39.0558 6.13332 39.0501 6.13911V6.26805C39.256 7.23363 39.717 8.12626 40.3851 8.85286C40.9449 9.37062 41.547 9.84407 42.1067 10.3175C42.8488 10.9516 43.5402 11.6427 44.1747 12.3846C44.1747 12.3846 44.217 12.4289 44.217 12.3846V11.6955L44.2592 9.6285V8.93949C44.2619 8.23279 44.1329 7.53179 43.8787 6.87245C43.4489 5.81287 42.6548 4.94187 41.6396 4.41658C41.5973 4.37427 41.5107 4.37427 41.4241 4.32995C41.4272 4.36345 41.4431 4.39447 41.4684 4.41658M37.0386 2.40192C37.638 2.97345 38.1728 3.6092 38.6333 4.29771C39.0494 4.98014 39.5561 5.60297 40.1395 6.14919C40.5261 6.53801 41.6899 7.4426 41.99 7.70047C41.9477 7.35597 41.3859 4.9001 39.8817 3.69332C39.0088 2.99544 37.9947 2.49569 36.9097 2.22866V2.31529L37.0386 2.40192ZM12.9261 35.948C13.9315 35.8695 14.9253 35.6817 15.8901 35.3879L18.2157 34.8278H18.258C18.258 34.8223 18.2569 34.8168 18.2548 34.8117C18.2527 34.8065 18.2496 34.8019 18.2456 34.7979C18.2417 34.794 18.237 34.7909 18.2319 34.7888C18.2268 34.7866 18.2213 34.7855 18.2157 34.7855H18.1714C17.0036 34.4767 15.9168 33.9178 14.986 33.1476L12.9724 31.2095L11.1219 29.6159V29.7026C11.2931 29.9604 11.9394 31.3828 12.3301 32.1564C12.7963 33.2212 13.6651 34.0579 14.7464 34.4833C14.7886 34.5256 14.7464 34.5256 14.6598 34.5256C13.4317 34.3598 12.1956 34.2596 10.9568 34.2255C9.99459 34.2116 9.03874 34.0665 8.11567 33.7943C7.4624 33.5826 6.84967 33.2618 6.30346 32.8454H6.21687C7.07293 34.0534 8.2666 34.9814 9.648 35.5128C10.7048 35.8483 11.8125 35.9942 12.92 35.944M11.9294 33.4015C12.016 33.4015 12.0582 33.4458 12.1871 33.4458V33.4015L12.1025 33.3169C11.3807 32.5754 10.8361 31.68 10.5098 30.6978L9.73458 28.5018C9.26036 27.1584 8.56107 25.9055 7.66664 24.7969V24.8835C7.91256 25.8293 8.07162 26.7957 8.14185 27.7705C8.52845 30.4399 9.82116 31.7333 9.82116 31.7756C9.82116 31.8179 9.82116 31.8623 9.77686 31.8179L9.60571 31.689C8.78445 31.0279 7.87061 30.4909 6.89343 30.0954C6.12506 29.762 5.38958 29.3573 4.69663 28.8866C3.88325 28.3736 3.15666 27.7344 2.54412 26.9928H2.50184C2.62649 27.345 2.77034 27.69 2.93274 28.0264C3.58307 29.2938 4.52766 30.3868 5.6873 31.2135C6.78424 32.0748 8.09239 32.6252 9.47483 32.8071C10.2944 33.0227 11.1119 33.2383 11.9294 33.4115M4.99866 27.8128L7.58207 29.4064C7.60537 29.383 7.62024 29.3525 7.62436 29.3198C7.06459 28.1996 6.978 26.9949 6.89343 25.7881C6.80685 24.7102 6.978 23.4188 6.93572 22.3853C6.85398 21.5205 6.68326 20.6665 6.42628 19.8368C6.42628 19.7945 6.384 19.7522 6.384 19.7078L6.34171 19.7522C6.25513 21.0012 5.78194 22.1214 5.60878 23.1549C5.43735 24.3797 5.52516 25.6269 5.86651 26.8155C5.91081 26.8599 5.82423 26.9022 5.82423 26.8599C4.9697 25.7072 4.01926 24.6288 2.98308 23.6364C2.08258 22.7945 1.40225 21.7444 1.00173 20.5782C0.979348 20.5543 0.949541 20.5386 0.917158 20.5338C0.872859 20.5338 0.917158 20.6205 0.917158 20.7071C0.911401 22.3254 1.40737 23.9056 2.33672 25.23C3.04867 26.2585 3.9559 27.1368 5.00672 27.8148M4.53353 24.0232C4.57581 23.9809 4.57581 23.9809 4.57581 23.8943C4.47185 22.8092 4.63429 21.7151 5.049 20.7071C5.65606 19.0626 6.08933 17.359 6.34171 15.6241C6.34171 15.4086 6.384 15.0197 6.384 14.9351C6.34171 14.9351 6.34171 14.9351 6.34171 14.9774C6.00569 15.6951 5.61667 16.3867 5.17787 17.0465C4.48923 17.9934 3.80059 19.0269 3.71401 20.2337C3.67179 20.5769 3.67179 20.924 3.71401 21.2672C3.71401 21.2784 3.70955 21.2892 3.70162 21.2971C3.69369 21.305 3.68294 21.3095 3.67172 21.3095V21.2672L3.36969 20.2337C2.76561 18.2512 1.39035 17.0102 1.39035 14.0728L1.34605 14.0305C1.26148 14.2018 1.21718 14.375 1.13261 14.5463C-0.117817 18.5957 2.42331 21.5251 2.94482 22.1295C3.46634 22.7339 4.15296 23.4632 4.53756 24.0232M2.72534 15.9646L3.45627 18.2049C3.46182 18.2049 3.46732 18.2038 3.47245 18.2017C3.47758 18.1996 3.48224 18.1964 3.48617 18.1925C3.4901 18.1886 3.49321 18.1839 3.49534 18.1788C3.49746 18.1737 3.49855 18.1681 3.49855 18.1626C3.90265 17.0138 4.46809 15.9285 5.17787 14.9391L5.30674 14.7659C5.90208 14.0463 6.42165 13.2672 6.85719 12.441C7.11493 11.8366 7.50354 10.5452 7.54583 10.4162H7.41696C6.98303 11.06 6.46115 11.6398 5.86651 12.1388C5.11261 12.6627 4.49194 13.3562 4.0543 14.1635C4.01201 14.2924 3.92543 14.4214 3.88315 14.5503L3.62541 15.2836C3.62541 15.2836 3.58111 15.3703 3.58111 15.2836C3.58111 15.197 3.66769 14.2058 3.66769 14.0346C3.66839 13.1763 3.58067 12.3202 3.40593 11.48C3.20416 10.4257 3.21855 9.34135 3.44822 8.29278C3.45712 8.20136 3.48673 8.11316 3.5348 8.03491C3.5348 7.9926 3.57708 7.90597 3.57708 7.86165C3.57708 7.81732 3.57708 7.81934 3.5348 7.77703C2.41525 9.15506 1.7689 11.6532 2.02865 13.549C2.24209 14.367 2.45754 15.1849 2.71729 15.9666M4.26572 9.67685L4.31002 11.7459V12.3906H4.35231C4.95966 11.6259 5.63715 10.9197 6.37595 10.2812L8.09755 8.81659C8.77089 8.08935 9.2368 7.1946 9.44664 6.22574V6.09882H9.40436L9.1889 6.399C8.78704 6.93038 8.29081 7.38317 7.72504 7.73472C6.69208 8.38143 6.00344 8.85487 5.39936 9.67282C5.35708 9.71715 5.31278 9.71714 5.35708 9.63051L5.74368 8.20817C5.95914 7.39021 6.04572 6.31439 6.34776 5.58911C6.53774 5.13608 6.8156 4.72523 7.16527 4.38032V4.28563C7.07868 4.28563 7.0364 4.32793 6.94981 4.37226C5.91815 4.90902 5.10989 5.79409 4.66844 6.87043C4.38662 7.52188 4.25385 8.2281 4.27982 8.93747V9.66879M6.56321 7.64406L8.43985 6.09882C9.01125 5.54026 9.51723 4.91843 9.94802 4.24533C10.3936 3.5469 10.9291 2.91018 11.5408 2.35155L11.6696 2.2206V2.13599C10.578 2.38296 9.56027 2.88485 8.6996 3.60064C7.10486 4.84973 6.58938 7.30358 6.5471 7.64809M23.8618 21.0073C23.9907 20.834 23.6886 20.7051 23.602 21.0073C23.5155 21.3095 23.7329 21.2229 23.8618 21.0073ZM27.1338 13.4261C27.005 13.3818 26.5298 13.9419 26.6163 14.0305C26.8425 13.8821 27.022 13.6725 27.1338 13.4261ZM27.2204 13.3395C27.305 13.3818 27.607 13.2106 27.5647 13.1662C27.5225 13.1219 27.1338 12.9507 27.1338 13.0373C27.1273 13.0909 27.1316 13.1453 27.1465 13.1972C27.1613 13.2491 27.1865 13.2975 27.2204 13.3395ZM33.0316 18.6804C33.2048 18.6381 33.1605 18.3782 33.0316 18.3782C32.9027 18.3782 32.7295 18.5937 32.7738 18.5937C32.8181 18.5937 32.945 18.7227 33.0316 18.6804ZM30.9214 12.9487C30.7925 12.9487 30.7502 13.0796 30.8791 13.1642C30.9294 13.1801 30.9826 13.1846 31.0349 13.1772C31.0871 13.1699 31.1371 13.151 31.1811 13.1219C31.2311 13.0995 31.2736 13.0634 31.3039 13.0177C31.3342 12.9721 31.351 12.9188 31.3523 12.864C31.3523 12.7331 31.1811 12.5618 31.2657 12.4752C31.3503 12.3886 31.4811 12.5195 31.5677 12.4752C31.6073 12.4551 31.6404 12.4242 31.6632 12.386C31.686 12.3479 31.6976 12.3041 31.6966 12.2596C31.6966 12.175 31.6543 11.9151 31.4811 11.9151C31.308 11.9151 31.1368 12.2596 31.1368 12.2596C31.1158 12.3073 31.105 12.3587 31.105 12.4107C31.105 12.4628 31.1158 12.5142 31.1368 12.5618C31.1811 12.7331 31.1368 12.9487 30.9214 12.9487Z" fill="#212427"/>
<path d="M33.7609 12.9929C33.8342 13.2557 33.9209 13.5146 34.0207 13.7685C34.063 13.8975 34.1073 14.3729 34.1918 14.3286C34.2764 14.2843 34.2784 14.0264 34.2361 13.8975C34.1895 13.5905 34.1174 13.2879 34.0207 12.9929C33.9764 12.8196 33.6764 12.1749 33.5898 12.2172C33.5032 12.2596 33.7186 12.6484 33.7609 12.8216C33.8032 12.9949 33.7186 12.9083 33.7609 12.9949M32.2548 5.67162C32.3836 5.71393 32.3836 5.45605 32.1682 5.28481C31.9527 5.11356 31.6084 5.19818 31.695 5.28481C31.8641 5.43741 32.0523 5.56744 32.2548 5.67162ZM25.7973 3.82015C25.4952 3.64689 25.755 3.38901 25.5395 3.21575C25.4243 3.16998 25.2984 3.1578 25.1766 3.18061C25.0547 3.20343 24.9418 3.26032 24.8509 3.34469C24.6354 3.60458 25.1086 3.51795 25.2375 3.60458C25.3664 3.69121 25.7973 3.99139 25.8416 3.94909C25.8496 3.93845 25.8549 3.92602 25.8571 3.91286C25.8593 3.89971 25.8583 3.88622 25.8541 3.87355C25.85 3.86088 25.8428 3.84941 25.8333 3.84011C25.8237 3.83081 25.812 3.82396 25.7993 3.82015M27.5209 2.95787C27.1343 2.78461 25.7087 2.78461 25.757 3.17344C25.8053 3.56227 26.5745 3.17344 26.79 3.17344C27.0054 3.17344 27.8652 3.12912 27.5209 2.95787ZM23.6005 19.5828C23.5159 19.5405 23.387 19.6251 23.3427 19.5405C23.2984 19.4559 23.2139 19.4962 23.2139 19.5405C23.2016 19.577 23.199 19.6161 23.2064 19.6539C23.2138 19.6917 23.231 19.7269 23.2561 19.7561C23.3042 19.797 23.3652 19.8194 23.4283 19.8194C23.4914 19.8194 23.5524 19.797 23.6005 19.7561C23.622 19.7324 23.6339 19.7015 23.6339 19.6695C23.6339 19.6374 23.622 19.6066 23.6005 19.5828ZM22.7829 16.6978C22.9118 16.6978 22.9118 16.6112 22.9561 16.6112C23.0004 16.6112 22.9561 16.6978 23.085 16.6978C23.2139 16.6978 23.3427 16.3956 22.9561 16.3956C22.6541 16.3956 22.6964 16.6978 22.7829 16.6978ZM23.3004 17.0424C23.085 16.998 23.1273 17.127 22.9561 17.127C22.6964 17.1713 22.9118 16.9557 22.8272 16.8691C22.7829 16.8268 22.6541 17.0424 22.6118 17.1713C22.6118 17.2579 22.6118 17.4292 22.6964 17.4715L23.5159 17.5581C23.687 17.5581 23.5159 17.0847 23.3004 17.0424ZM20.6304 19.8407C20.717 19.8407 20.7593 19.5828 20.717 19.4539C20.6747 19.325 20.415 19.4116 20.415 19.4962C20.4502 19.6303 20.5253 19.7504 20.6304 19.8407ZM17.1872 19.8407C17.1872 19.7561 17.1872 19.4116 17.1007 19.325C17.0141 19.2383 17.0141 19.3673 16.9718 19.3673C16.9295 19.3673 16.9275 19.196 16.8852 19.196C16.8429 19.196 16.8852 19.4539 16.9718 19.6251C17.0584 19.7964 17.1872 20.0563 17.1872 19.8407ZM17.1007 19.0671C17.1853 18.8172 17.2288 18.5553 17.2295 18.2914C17.2344 18.2176 17.2214 18.1437 17.1916 18.076C17.1618 18.0083 17.1161 17.9488 17.0584 17.9026C17.0141 17.9026 17.0584 18.0315 17.1007 18.2471C17.0781 18.4663 17.035 18.6828 16.9718 18.8938C16.9718 18.9361 17.0584 19.1517 17.1007 19.0671Z" fill="#212427"/>
<path d="M12.708 28.7169C14.9982 31.0096 17.9165 32.5712 21.0939 33.2043C24.2712 33.8373 27.5648 33.5133 30.5581 32.2733C33.5514 31.0333 36.1099 28.9329 37.91 26.2378C39.7101 23.5427 40.6709 20.3741 40.6709 17.1326C40.6709 13.8911 39.7101 10.7225 37.91 8.02739C36.1099 5.33233 33.5514 3.23194 30.5581 1.9919C27.5648 0.751855 24.2712 0.427868 21.0939 1.06091C17.9165 1.69396 14.9982 3.2556 12.708 5.54831C11.184 7.0676 9.9748 8.87296 9.14971 10.8609C8.32463 12.8488 7.8999 14.9801 7.8999 17.1326C7.8999 19.2851 8.32463 21.4164 9.14971 23.4043C9.9748 25.3922 11.184 27.1976 12.708 28.7169ZM8.61844 17.4731H11.1153C11.155 18.7442 11.3726 20.0036 11.7616 21.2143C11.6248 21.1745 11.4941 21.1162 11.373 21.041C11.2018 20.9544 11.073 21.0833 11.0287 21.0833C10.8575 21.0833 10.6421 20.9544 10.6421 21.0833C10.6421 21.2123 10.8132 21.1277 10.8132 21.2143C10.8132 21.3009 10.3823 21.2989 10.34 21.1277C10.2978 20.9564 10.2112 20.7832 10.1689 20.9987C10.1266 21.2143 9.95344 21.17 9.86685 21.2143C9.81331 21.2728 9.78258 21.3486 9.78027 21.4278C9.78027 21.5145 9.56482 21.4722 9.56482 21.6011C9.56482 21.73 9.69369 21.7744 9.73798 21.9033C9.78228 22.0322 9.90914 22.1189 9.82457 22.1612C9.74 22.2035 9.78027 22.1189 9.69369 22.1612C9.6071 22.2035 10.0823 23.4969 10.1689 23.4526C10.2555 23.4083 10.038 23.0235 10.038 22.8482C10.0306 22.7859 10.0435 22.7229 10.0746 22.6684C10.1058 22.614 10.1537 22.5711 10.2112 22.546C10.34 22.4614 10.6844 23.0638 10.8152 22.9771C10.9461 22.8905 10.773 22.8059 10.9018 22.7616C11.0307 22.7172 11.4193 23.3216 11.5482 23.1504C11.6348 23.0214 11.7193 23.235 11.7193 23.2793C11.8482 23.4949 12.0637 23.4949 12.1925 23.7528C12.3214 24.0106 12.6234 24.4861 12.8389 24.4861C13.0543 24.4861 12.9255 24.2705 13.012 24.2705C13.0986 24.2705 13.1832 24.5707 13.3121 24.744C13.4036 24.8768 13.5428 24.9692 13.7007 25.0019C14.0007 25.3907 14.347 25.7775 14.6914 26.1643L12.9255 27.9312C10.1887 25.1287 8.64536 21.3731 8.62045 17.4549M22.8705 13.8809L22.6973 13.9676C22.4609 14.075 22.2433 14.2199 22.053 14.3967L20.2871 12.6319C21.2986 11.7307 22.5888 11.2044 23.9417 11.141V13.6392C23.6321 13.6705 23.328 13.7429 23.0376 13.8547C23.1075 13.7287 23.1942 13.6128 23.2953 13.5102C23.126 13.6082 22.9792 13.7406 22.8644 13.8991M21.5254 17.9908V18.0775C21.5254 17.9908 21.4831 17.9485 21.4388 17.8619C21.3966 17.8176 21.3543 17.7753 21.31 17.7753H21.1026L21.018 17.8176H20.4139C20.3294 17.8176 20.2851 17.8176 20.2851 17.7753C20.2428 17.604 20.5005 17.733 20.6737 17.2152C20.716 17.1729 20.716 17.0863 20.7583 17.044L20.8025 16.9573L20.8448 16.913L20.8871 16.8707C20.9212 16.8378 20.9623 16.813 21.0072 16.798C21.0521 16.783 21.0999 16.7782 21.1469 16.7841H21.2335L21.318 16.8707L21.4469 17.1286C21.4912 17.1729 21.5335 17.1729 21.5335 17.2152C21.5985 17.2474 21.6571 17.2911 21.7066 17.3441L21.7489 17.3885V17.4308C21.7912 17.4731 21.7912 17.4731 21.8355 17.4731H22.0067C22.0932 17.4308 22.0932 17.4731 22.1375 17.4731V17.5174C22.1375 17.5597 22.1375 17.5597 22.0932 17.604C22.0932 17.6463 22.051 17.6463 22.051 17.6886C22.0067 17.733 21.9644 17.7753 21.9221 17.7753C21.8495 17.7655 21.7776 17.7513 21.7066 17.733C21.6623 17.733 21.6201 17.733 21.6201 17.7753V17.9908M16.8942 22.1269C16.7722 21.8871 16.7133 21.6202 16.7231 21.3513C16.7145 21.0877 16.6344 20.8315 16.4915 20.6099C16.4412 20.4423 16.4121 20.269 16.4049 20.0941C16.4049 19.7919 16.1472 19.8786 16.1472 19.7919C16.1472 19.7053 16.3606 19.792 16.3606 19.7053C16.2661 19.487 16.0989 19.3083 15.8874 19.1996C15.672 19.113 15.7586 18.9841 15.7586 18.8551C15.7678 18.7948 15.7649 18.7333 15.7501 18.6741C15.7352 18.615 15.7086 18.5594 15.672 18.5106C15.6297 18.3374 15.672 18.0352 15.8874 18.0352C15.974 18.0352 16.1029 18.1218 16.2317 18.0352C16.3606 17.9485 16.276 17.6907 16.276 17.4751H17.4842C17.4842 17.6483 17.5285 17.8639 17.5285 18.0352C17.4419 18.0795 17.3996 18.1661 17.4419 18.2084C17.4842 18.2507 17.5285 18.2951 17.5708 18.2507C17.7841 19.5066 18.3529 20.675 19.2098 21.6172L17.4439 23.3841C17.3048 23.2342 17.1757 23.0754 17.0573 22.9086V22.7797C17.0573 22.4795 16.8419 22.3062 16.7553 22.0484M15.2048 19.1191C15.0888 18.5798 15.0168 18.032 14.9894 17.4811H16.0223C15.9378 17.6121 15.7223 17.741 15.678 17.87C15.6337 17.9989 15.378 18.43 15.5491 18.6013C15.9378 19.0324 15.4626 19.2057 15.2048 19.1191ZM15.4203 25.4934L15.2048 25.709L14.9028 25.4088C14.9877 25.3698 15.0823 25.357 15.1745 25.372C15.2666 25.3871 15.3522 25.4294 15.4203 25.4934ZM18.0903 14.4128C18.046 14.4128 18.046 14.4571 18.0037 14.4571C17.8748 14.5861 17.5305 14.5417 17.5728 14.6727C17.6151 14.8037 18.5212 14.3705 18.5212 14.4571C18.5212 14.5438 18.1326 14.6727 17.8748 14.8016C17.6171 14.9306 17.5305 15.1461 17.0996 15.1461C16.8841 15.1461 16.7976 15.3174 16.713 15.4463C16.5965 15.6092 16.4953 15.7825 16.411 15.9641C16.4154 16.2327 16.3561 16.4986 16.2378 16.7397H14.9894C15.0766 14.5294 15.9466 12.4221 17.4439 10.7945L19.2098 12.5613C18.7802 13.1425 18.4054 13.7623 18.0903 14.4128ZM19.7253 13.1214L21.2757 14.6727H21.1026C20.9314 14.6727 20.9314 14.5417 20.8025 14.5417C20.5428 14.5861 20.5005 14.6727 20.4582 14.6284C20.2664 14.452 20.0484 14.3065 19.8119 14.1972C19.5292 14.1038 19.2217 14.1196 18.9501 14.2416C18.9078 14.2416 18.9078 14.2839 18.8655 14.2839C19.1655 13.8971 19.4696 13.5082 19.7253 13.1214ZM17.5728 16.2663C17.5728 16.4375 17.5305 16.6108 17.5305 16.782H16.6264C16.609 16.7153 16.6078 16.6454 16.6229 16.5781C16.6379 16.5109 16.6688 16.4482 16.713 16.3952C16.7637 16.3081 16.8415 16.2398 16.9346 16.2009C17.0276 16.162 17.1308 16.1546 17.2285 16.1797C17.3467 16.1924 17.4626 16.2215 17.5728 16.2663ZM18.348 18.291L18.4346 18.42C18.5212 18.5066 18.6057 18.5912 18.6923 18.5489C18.8061 18.5276 18.9229 18.5276 19.0366 18.5489C19.1534 18.595 19.2571 18.669 19.3387 18.7645C19.4253 18.8934 19.5964 18.8068 19.7253 18.8934C19.8542 18.98 19.983 19.0667 19.8119 19.1513C19.6407 19.2359 19.983 19.4112 20.0273 19.4112C20.0716 19.4112 20.1139 19.3245 20.1139 19.1956C20.1139 19.1513 20.1985 18.98 20.3294 19.0224C20.4602 19.0647 20.8448 19.5401 20.9737 19.3669C21.1026 19.1936 21.018 18.98 21.0603 18.8934C21.0617 18.8709 21.0713 18.8497 21.0872 18.8337C21.1032 18.8178 21.1244 18.8082 21.1469 18.8068C21.2505 19.0097 21.3805 19.198 21.5335 19.3669L19.7696 21.1337C19.0225 20.3495 18.5274 19.3594 18.348 18.291ZM19.7253 12.1302L18.0037 10.3654C19.6298 8.86987 21.7347 8.00217 23.9417 7.91755V10.4157C22.3718 10.4662 20.8719 11.0773 19.7132 12.1383M17.4741 9.85565L15.7102 8.0888C17.9431 5.98043 20.8728 4.76718 23.9417 4.68V7.17817C21.5359 7.25513 19.2402 8.20458 17.4822 9.84961M16.9667 10.3231C15.3318 12.0859 14.3855 14.3786 14.3007 16.782H11.8039C11.8908 13.715 13.1011 10.7868 15.2048 8.55418L16.9667 10.3231ZM14.2967 17.4731C14.2977 17.9361 14.3408 18.398 14.4256 18.8531C14.3833 18.8531 14.3833 18.7222 14.2544 18.7665C14.1256 18.8108 13.6503 19.6267 13.4369 19.9753C13.2637 20.2755 13.5215 20.9222 13.2637 21.1377C13.0141 21.2228 12.7522 21.2663 12.4885 21.2667H12.4462C12.0265 20.0748 11.7941 18.8249 11.7576 17.5617L14.2967 17.4731ZM23.8974 32.8087C19.9838 32.7321 16.2437 31.1784 13.4268 28.459L15.1907 26.6922C17.5447 28.9307 20.6412 30.2219 23.8873 30.3185L23.8974 32.8087ZM23.8974 29.6215C20.8364 29.5307 17.9149 28.32 15.6861 26.2187L15.9881 25.9165C16.0532 25.9699 16.1258 26.0133 16.2036 26.0454C16.3898 26.1403 16.6022 26.1707 16.8076 26.1321C16.9808 26.0898 17.3251 25.7876 17.5406 25.7876C17.756 25.7876 18.1003 25.8742 18.3158 25.7453C18.5312 25.6163 18.1849 25.1852 18.056 24.9696C18.0138 24.9253 18.0138 24.883 17.9715 24.8407C19.6613 26.2671 21.7878 27.0725 23.9981 27.1233L23.8974 29.6215ZM23.8974 26.398C21.6888 26.3124 19.583 25.4424 17.9574 23.9442L19.7213 22.1773C20.5511 22.9328 21.5581 23.4664 22.649 23.7286C22.2624 23.8998 22.0892 24.1577 22.1335 24.3733C22.1778 24.5889 21.8738 24.7178 21.8738 24.9777C21.8738 25.2376 22.2181 25.4088 22.2624 25.6667C22.3047 25.7956 22.6067 26.0112 22.8665 26.1824C23.1881 26.2744 23.5244 26.3038 23.8571 26.2691L23.8974 26.398ZM23.8108 22.9529C23.682 22.8663 23.5954 23.0396 23.4242 23.1242C22.2436 22.953 21.1375 22.4444 20.2387 21.6595L22.0026 19.8947C22.5432 20.3358 23.2028 20.6058 23.8974 20.6703C23.8974 20.755 23.984 20.8416 23.984 21.0148C23.984 21.1881 23.8551 21.2727 23.8974 21.3594C23.9397 21.446 24.3283 21.3594 24.3706 21.2304C24.4129 21.1015 24.2417 21.0148 24.1994 20.8859C24.1551 20.7993 24.1551 20.755 24.1129 20.6703H24.2417C24.3728 20.6776 24.5042 20.6626 24.6303 20.626C24.6526 20.6245 24.6736 20.6149 24.6892 20.5989C24.7048 20.5829 24.714 20.5617 24.7149 20.5394C24.7149 20.4971 24.7592 20.4548 24.7592 20.4104C24.7592 20.3661 24.8015 20.3681 24.8015 20.3258L24.8458 20.3681C24.8881 20.4548 24.9747 20.7126 25.0592 20.6703C25.1438 20.628 25.1901 20.2392 25.1458 20.1526C25.1037 20.0969 25.0809 20.029 25.0809 19.9592C25.0809 19.8893 25.1037 19.8214 25.1458 19.7658C25.1458 19.7214 25.1901 19.4636 25.2747 19.5059C25.3593 19.5482 25.2747 19.7658 25.2747 19.8504C25.2747 19.9813 25.3613 20.1526 25.4901 20.0659C25.5767 20.0236 25.6633 19.8947 25.7499 19.937C25.8365 19.9793 25.5344 20.0659 25.4901 20.1526C25.4458 20.2392 25.619 20.2815 25.5767 20.3258C25.5344 20.3702 25.4901 20.3258 25.4479 20.3681C25.4056 20.4104 25.5344 20.6703 25.4479 20.7126C25.3613 20.755 25.0592 20.8416 24.9747 20.8859C24.8901 20.9302 24.8015 20.8416 24.8458 20.7993C24.8901 20.757 24.8458 20.5837 24.7592 20.5837C24.6726 20.5837 24.6726 20.626 24.6726 20.7126C24.6726 20.7993 24.7592 20.9282 24.7592 20.9705C24.7592 21.0128 24.6303 21.0572 24.5438 21.0995C24.4522 21.2354 24.3353 21.3524 24.1994 21.444C24.0706 21.5306 23.8108 21.5306 23.8108 21.6172C23.8108 21.7039 23.9417 21.7039 23.984 21.7462C24.0706 21.8751 24.1129 22.0484 23.9417 22.135C23.7705 22.2216 23.5531 22.004 23.4665 22.0484C23.3799 22.0927 23.3376 22.3062 23.2953 22.5641C23.2531 22.822 23.7685 22.9086 24.0263 22.7797C24.1994 22.6951 24.1551 22.4352 24.3283 22.3485C24.5015 22.2619 24.4572 22.0907 24.6303 22.135C24.8035 22.1793 24.7592 22.004 24.9304 22.004C25.1015 22.004 25.1035 22.135 25.319 22.1773C25.6633 22.2639 25.6633 22.5218 25.7056 22.3929C25.7479 22.2639 25.7922 22.1773 25.5344 22.0907C25.2767 22.004 25.1458 21.7039 25.3613 21.7905C25.619 21.9194 25.8345 21.9194 25.8788 22.0484C25.9231 22.1773 26.1788 22.135 26.2231 22.2639C26.2654 22.4795 26.4385 22.2639 26.3097 22.135C26.1808 22.0061 26.2231 21.9617 26.3097 21.8751C26.3962 21.7885 26.4385 21.9194 26.5674 21.7462C26.6963 21.5729 26.5231 21.6172 26.4808 21.5306C26.4385 21.444 26.4808 20.9705 26.654 21.0572C26.8271 21.1438 26.9983 21.0148 26.9117 20.9705C26.8251 20.9262 26.954 20.6703 26.9983 20.6703C27.0426 20.6703 26.9983 20.8416 27.0406 20.8859C27.0829 20.9302 27.5138 20.755 27.5581 20.9705C27.6024 21.1861 27.256 21.315 27.1695 21.315C26.9983 21.315 26.8674 21.4883 26.7386 21.6595C26.6097 21.8308 26.4808 21.8751 26.5674 22.0484C26.654 22.2216 26.8251 22.1773 26.9983 22.0907C27.1715 22.004 27.2983 21.8751 27.3849 21.8328C27.5581 21.7462 27.6869 22.2639 27.6004 22.3485C27.5138 22.4332 27.3426 22.4795 27.256 22.5641C27.0082 22.715 26.7279 22.8041 26.4385 22.824C26.2654 22.8663 26.2654 22.9086 26.2231 23.0819C26.1808 23.2551 25.4056 23.1242 25.2324 23.1242C25.0592 23.1242 25.3613 22.7374 25.1035 22.7797L24.3283 22.9086C24.286 22.9086 24.0263 23.1242 23.8108 22.9529ZM26.0942 26.9581C26.314 27.0525 26.5066 27.2007 26.654 27.3892C26.7829 27.6048 26.8251 27.6914 26.7386 27.907C26.5231 28.2938 26.6097 28.5517 27.0406 28.6826C27.2983 28.7673 27.3849 29.0271 27.5581 29.1984C26.6011 29.4501 25.6192 29.5947 24.6303 29.6295V27.1313C25.1035 27.087 25.619 27.0447 26.0942 26.9581ZM24.6303 26.4423V26.1401C25.1901 26.0535 25.0592 26.398 25.4479 26.2691C25.5076 26.2499 25.5715 26.2479 25.6324 26.2632C25.6932 26.2785 25.7486 26.3106 25.7922 26.3557C25.4036 26.3625 25.0157 26.3914 24.6303 26.4423ZM24.6303 32.859V30.3105C25.9329 30.2735 27.2225 30.0413 28.4561 29.6215C28.4731 29.6377 28.4935 29.6499 28.5158 29.6573C28.5381 29.6646 28.5617 29.6668 28.585 29.6638C28.7558 29.653 28.92 29.5936 29.0582 29.4925C29.472 29.3286 29.8626 29.1112 30.22 28.8458C31.3549 28.2686 32.3995 27.5288 33.3209 26.6498L35.0848 28.4147C32.2787 31.155 28.544 32.7375 24.6243 32.8469M31.5973 10.319L32.2014 9.71463C32.359 9.89323 32.5715 10.0144 32.8054 10.0591C32.8949 10.0648 32.9792 10.103 33.0426 10.1664C33.106 10.2298 33.1441 10.3141 33.1498 10.4036C33.1941 10.6192 33.4075 10.7058 33.6229 10.7481C33.8384 10.7905 33.9673 11.0503 34.1404 11.0503C34.3136 11.0503 34.8714 11.824 35.0868 12.0839C35.2157 12.2128 35.3888 12.4284 35.5177 12.2551C35.6466 12.0819 35.6466 12.1262 35.7332 12.0839C36.3957 13.5653 36.7676 15.1602 36.8286 16.782H34.3196C34.3121 16.2157 34.2405 15.652 34.1062 15.1018C34.1935 14.9282 34.2377 14.7361 34.2351 14.5417C34.2394 14.505 34.2317 14.4679 34.2132 14.4359C34.1946 14.4039 34.1663 14.3788 34.1323 14.3642C34.0983 14.3497 34.0605 14.3466 34.0246 14.3554C33.9887 14.3641 33.9565 14.3843 33.933 14.4128C33.8439 14.0884 33.7288 13.7718 33.5887 13.4659C33.5464 13.2927 33.5021 13.0791 33.4598 12.9058C33.4598 12.8635 33.3733 12.8192 33.2867 12.7326C33.2243 12.585 33.1523 12.4417 33.0712 12.3035C33.2021 12.2168 33.2444 12.0013 33.0712 12.0436C32.8135 12.0879 32.9867 11.9146 32.9001 11.828C32.8135 11.7414 32.8135 11.828 32.7712 11.8723C32.4366 11.3558 32.0623 10.8661 31.6517 10.4077V10.3654C31.5651 10.3654 31.5651 10.321 31.6074 10.321M33.1155 24.9233C33.0289 24.752 32.9867 24.5365 32.9001 24.3632C32.8558 24.192 32.5115 24.192 32.5115 24.2786C32.5184 24.4516 32.5042 24.6248 32.4692 24.7943V24.8407L31.5651 23.9361C33.2024 22.1728 34.1502 19.8784 34.2351 17.4731H36.7319C36.6517 20.5291 35.4396 23.4463 33.331 25.6586L33.2021 25.5297C33.2344 25.3241 33.2042 25.1136 33.1155 24.9253M31.0476 26.6539C31.1785 26.4383 31.4362 26.0495 31.5651 25.8339C31.6939 25.6183 31.2208 25.3182 30.961 25.2295C30.7013 25.1409 30.7013 25.0139 30.7013 24.7984C30.8415 24.6962 30.9716 24.5808 31.0899 24.4539L32.8538 26.2207C32.2717 26.7691 31.6378 27.2596 30.961 27.6854C30.9167 27.5987 31.2187 27.2965 31.3053 27.1676C31.3919 27.0387 30.961 26.8674 31.0456 26.6519M32.1228 16.3549C31.9074 16.0548 32.2094 16.0104 32.5094 15.8815C32.6826 15.7969 32.8981 15.9258 32.8981 15.8392C32.9048 15.7799 32.9234 15.7225 32.9528 15.6706C32.9822 15.6187 33.0218 15.5732 33.0692 15.537C33.1737 15.49 33.2635 15.4155 33.329 15.3214C33.329 15.4081 33.3713 15.4947 33.3713 15.5813C33.2884 15.7255 33.244 15.8885 33.2424 16.0548C33.2424 16.1837 33.2424 16.3549 33.3713 16.0548C33.3713 16.0104 33.4135 16.0104 33.4135 15.9681C33.4828 16.235 33.512 16.5106 33.5001 16.7861H31.6496V16.7438C31.7785 16.5282 32.2537 16.5705 32.1228 16.3549ZM32.4672 12.8232C32.4674 12.829 32.4665 12.8347 32.4645 12.8401C32.4625 12.8454 32.4595 12.8503 32.4555 12.8545C32.4516 12.8586 32.4468 12.8619 32.4415 12.8642C32.4363 12.8664 32.4306 12.8676 32.4249 12.8676C32.3806 12.9099 32.1651 12.5654 32.1651 12.8232C32.1651 13.0811 32.2517 13.1678 32.4249 13.2121C32.598 13.2564 32.5094 13.341 32.6403 13.3833C32.7047 13.3946 32.7642 13.4248 32.8115 13.4699C33.0145 13.9423 33.173 14.4327 33.2847 14.9346C33.2204 14.967 33.1624 15.0107 33.1135 15.0635C33.0269 15.1502 33.0692 15.3214 32.9846 15.4504C32.8538 15.6659 32.8115 15.7969 32.4672 15.7102C32.2517 15.6236 32.4249 15.3657 32.4672 15.1502C32.5094 14.9346 32.596 14.9769 32.596 14.848C32.596 14.719 32.1651 14.2436 31.9497 14.4168C31.7342 14.5901 31.7785 14.7613 31.6054 14.9346C31.5208 15.0212 31.4342 15.0212 31.3053 14.9346C31.1765 14.848 31.1322 14.7613 31.1765 14.6767C31.2208 14.5921 30.8744 14.2013 30.7456 14.03C30.6634 13.9252 30.559 13.84 30.4399 13.7804C30.3208 13.7208 30.19 13.6884 30.0569 13.6855C29.8232 13.2848 29.5486 12.9094 29.2374 12.5654L31.0033 10.7985C31.5791 11.4015 32.0715 12.0791 32.4672 12.8132M29.4971 14.022L29.4106 14.1509C29.3683 14.2375 29.1528 14.0643 29.1085 14.1086C29.0642 14.1529 29.4106 14.582 29.0662 14.4531C28.7219 14.3242 28.9374 14.3242 28.9374 14.1932C28.9374 14.0623 28.6353 13.9797 28.8085 13.893C28.9817 13.8064 28.8085 13.6775 28.9797 13.6331C29.1508 13.5888 29.1085 13.4196 28.8931 13.3753C28.6776 13.3309 28.7219 13.8487 28.5931 13.7641C28.4669 13.7275 28.3355 13.7125 28.2044 13.7198L28.8085 13.1154C28.8748 13.1498 28.9496 13.1645 29.024 13.1577C29.128 13.4715 29.2884 13.7637 29.4971 14.02M28.8085 22.7636C29.0849 22.801 29.3582 22.8589 29.626 22.9368C29.7972 23.0235 29.928 23.1947 30.0569 22.9791C30.3157 22.5887 30.4911 22.1491 30.5724 21.6877C30.659 21.041 30.5301 20.8255 30.4435 20.8255C30.3569 20.8255 30.1858 20.9987 30.0126 20.9987C29.928 20.9987 29.928 21.17 29.928 21.2989C29.928 21.4279 29.7549 21.5588 29.7126 21.4722C29.6703 21.3855 29.5817 21.4279 29.626 21.5145C29.6703 21.6011 29.2817 21.5588 29.1085 21.4722C28.8508 21.3432 29.4106 21.3432 29.6683 21.1277C29.8942 20.9376 30.1099 20.7359 30.3147 20.5233C30.4435 20.3097 30.4435 20.0498 30.659 19.8786C30.8744 19.7073 31.2187 19.7496 31.263 19.4897C31.3073 19.2299 31.3496 19.2742 31.4785 19.3185C31.6074 19.3628 32.8135 19.2742 32.8135 18.8874C32.8135 18.7141 32.5558 18.5006 32.298 18.4562C32.1248 18.4562 32.0826 18.1117 31.996 17.9405C31.9113 17.759 31.8102 17.5857 31.6939 17.4227H33.5062C33.4194 19.6332 32.5494 21.7407 31.0516 23.368L31.0093 23.3236V23.1524C31.0516 22.8079 30.7939 22.2478 30.7073 22.3324C30.6207 22.417 30.7073 22.4191 30.4496 22.8079C30.363 22.9368 30.2341 23.1524 30.063 23.1524C29.8918 23.1524 29.8898 23.0658 29.6321 23.1081C29.4046 23.1524 29.1708 23.1524 28.9434 23.1081C28.5317 22.9755 28.1401 22.7871 27.7796 22.548C27.8239 22.5057 27.9527 22.5923 27.9527 22.4634C27.9527 22.3344 28.6414 22.7213 28.8145 22.7636M35.5721 27.9755L33.8082 26.2187C36.0455 23.8635 37.336 20.7653 37.4326 17.5174H39.9717C39.8911 21.4408 38.3209 25.1865 35.5801 27.9936M39.9596 16.782H37.4205C37.3804 14.9292 36.9394 13.1071 36.1278 11.4412L36.1721 11.3989C36.3433 11.2256 35.3546 9.93423 35.1815 9.80529C34.9822 9.62976 34.7926 9.44346 34.6136 9.24723C34.2632 8.90487 33.9463 8.52978 33.6672 8.12708L35.5177 6.27359C38.2843 9.08071 39.8698 12.8424 39.9476 16.7841M24.6344 1.4505C28.556 1.537 32.3033 3.08863 35.1392 5.80015L33.4155 7.51462C33.331 7.47231 33.2444 7.43001 33.2867 7.34337C33.3733 7.21444 33.1578 7.21444 33.1155 6.86993C33.0165 6.52204 32.7842 6.22735 32.4692 6.04996C32.2537 5.92103 32.1249 5.74978 31.9094 5.66315C31.6939 5.57652 31.263 5.31864 31.0476 5.40527C30.9094 5.45371 30.765 5.4822 30.6187 5.48989C28.788 4.51133 26.7518 3.98042 24.6767 3.94062L24.6344 1.4505ZM24.6344 4.67395C26.4755 4.72992 28.2824 5.18568 29.9301 6.00967C29.9806 6.29223 30.0987 6.55835 30.2744 6.78531C30.3714 6.99641 30.4866 7.19865 30.6187 7.38971C30.7476 7.51865 30.661 7.77854 30.7033 7.99411C30.7033 8.07872 30.7899 8.16536 30.8342 8.25199V8.59649C30.8342 8.6388 31.0053 8.6388 31.1342 8.55217C31.263 8.46554 31.3496 8.29429 31.5228 8.33862C31.696 8.38294 31.9094 8.72543 32.0383 8.94301L31.2208 9.76096C31.1342 9.58972 31.0476 9.37415 31.0919 9.37415C31.1362 9.37415 31.2208 9.41646 31.263 9.41646C31.4362 9.41646 31.1342 9.28752 31.1342 9.24521C31.0053 9.11426 31.0053 8.94301 30.8342 8.81407C30.663 8.68514 30.4032 8.76975 30.3167 8.59851C30.1475 8.29204 29.9123 8.02708 29.628 7.82286C29.5837 7.82286 29.9723 8.29631 29.8435 8.38294C29.7146 8.46957 29.2394 8.08074 29.1971 8.16737C29.1548 8.254 29.7146 8.46957 29.8858 8.64082C29.9723 8.72745 30.1435 8.98532 30.3167 9.20089C28.6752 7.95836 26.6913 7.25145 24.6344 7.17616V4.67395ZM24.6344 7.86114C26.843 7.94837 28.9485 8.81889 30.5744 10.317L28.8105 12.0839C27.6533 11.0535 26.1811 10.4463 24.6344 10.3613V7.86114ZM24.6344 11.0846C25.9901 11.1543 27.2812 11.6861 28.293 12.5916L28.2064 12.6782L28.1219 12.6359C27.9064 12.5493 27.4755 12.9804 27.5621 13.0227C27.6487 13.065 27.8198 12.8514 27.9064 12.8938H27.9487L27.2178 13.6694C27.0023 13.756 26.7869 13.9273 26.7869 14.0562V14.1005L26.5271 14.3645L26.3983 14.2355C26.1943 14.0651 25.9609 13.9333 25.7096 13.8467C25.7693 13.7997 25.8191 13.7413 25.8561 13.6749C25.8931 13.6085 25.9165 13.5354 25.9251 13.4599C25.9251 13.202 25.8385 13.2866 25.7096 13.4176C25.5807 13.5485 25.4519 13.5888 25.3653 13.7178C25.1455 13.6333 24.9121 13.5896 24.6767 13.5888V11.0906L24.6344 11.0846ZM24.3323 14.2718C24.3469 14.308 24.3506 14.3476 24.3431 14.3858C24.3356 14.4241 24.3172 14.4594 24.2901 14.4874C24.2035 14.574 23.9457 14.2718 23.9014 14.5297C23.8148 14.7896 24.0746 14.6606 24.0746 14.7029C24.2013 14.866 24.3859 14.9742 24.5901 15.0051C24.7632 15.0051 25.021 15.0051 25.021 15.1764C25.021 15.263 25.2364 15.263 25.2787 15.3496C25.2787 15.4786 25.4096 15.6941 25.4942 15.6498C25.5787 15.6055 25.7096 15.6941 25.7539 15.7808C25.7982 15.8674 25.7539 15.9097 25.7096 15.9943C25.5807 16.1253 25.8385 16.0809 25.8828 16.3388C25.9271 16.5967 25.6673 16.4255 25.623 16.5987C25.5385 16.7277 25.4519 16.8143 25.3653 16.9432C25.323 16.9855 25.4096 17.0722 25.4519 17.0299C25.4942 16.9875 25.5807 16.8566 25.7096 16.8566C25.8385 16.8566 25.9674 17.33 26.0982 17.3744C26.2291 17.4187 26.1828 17.5899 26.2271 17.6322C26.2714 17.6745 26.0117 17.6322 26.0539 17.7189C26.0962 17.8055 26.356 17.8478 26.356 17.9767C26.3416 18.0473 26.3041 18.111 26.2494 18.1578C26.1946 18.2045 26.1258 18.2316 26.0539 18.2346C25.9251 18.2346 25.7096 17.9344 25.7096 18.0191C25.7096 18.1037 25.7962 18.3636 25.9251 18.3636C26.0539 18.3636 26.356 18.2346 26.2271 18.4079C26.0982 18.5811 26.1405 18.839 26.0539 18.839C25.9674 18.839 25.9251 18.839 26.0117 18.968C26.0285 19.0347 26.0295 19.1045 26.0145 19.1717C25.9994 19.2389 25.9688 19.3016 25.9251 19.3548C25.8774 19.3832 25.8215 19.3944 25.7666 19.3867C25.7117 19.3791 25.6611 19.3528 25.623 19.3125C25.623 19.2681 25.8828 19.2681 25.8828 19.1392C25.8828 19.0103 25.7539 18.968 25.4942 19.0546C25.3653 19.0969 25.323 19.0103 25.2364 19.0103C25.1498 19.0103 24.8921 19.3125 24.8921 19.3548V19.5703C24.8961 19.7241 24.8509 19.8751 24.7632 20.0015C24.608 20.0363 24.449 20.0505 24.2901 20.0438C23.5935 20.0238 22.9248 19.7657 22.3953 19.3125C22.5022 19.2583 22.6198 19.2287 22.7396 19.2258C22.8685 19.2681 22.9108 19.1835 22.9973 19.1392C23.0839 19.0949 23.2994 19.2258 23.4282 19.1392C23.5571 19.0526 23.8591 18.4945 23.8148 18.3636C23.7705 18.2326 24.1169 18.019 24.0746 17.9767C24.0323 17.9344 23.988 18.019 23.988 17.9767C23.988 17.9344 24.0746 17.9344 23.988 17.7612C23.9014 17.5879 23.7726 17.6745 23.686 17.6745C23.5571 17.5899 23.3417 17.5456 23.2994 17.5899C23.2571 17.6342 23.1262 17.5033 23.0839 17.5456C23.0505 17.548 23.0191 17.5623 22.9954 17.586C22.9717 17.6097 22.9574 17.6411 22.9551 17.6745C22.9108 17.7612 22.9973 17.8478 22.9973 17.9344C22.9551 18.1057 22.6953 18.2346 22.6953 18.3636C22.6953 18.4925 22.5664 18.4079 22.5242 18.4502C22.4819 18.4925 22.5242 18.5791 22.4376 18.5791C22.351 18.5791 22.2221 18.7947 22.1375 18.968C22.0067 18.7947 21.8778 18.5791 21.7489 18.4079C21.8355 18.3636 21.9221 18.3212 21.9644 18.3636C22.0932 18.4502 22.6107 17.5456 22.5242 17.2877C22.4376 17.0299 22.3087 17.2011 22.1798 17.2434C22.051 17.2857 22.051 17.1588 22.0932 17.1145C22.1355 17.0701 22.6973 17.0722 22.3953 16.8989C22.2664 16.8143 21.9221 16.8143 21.9644 16.6853C22.0067 16.5564 22.1798 16.6853 22.2221 16.6853C22.4376 16.77 22.5664 16.3388 22.6953 16.3388C22.9108 16.3388 22.8262 15.9097 22.6107 16.0386C22.3953 16.1676 22.3087 16.1253 22.2221 16.2542C22.1355 16.3831 21.9221 16.5544 21.9221 16.3831C21.9221 16.2965 22.3953 16.0386 22.4819 15.9097C22.5769 15.8115 22.6497 15.694 22.6953 15.5652C22.7396 15.4342 23.3417 15.3496 23.4705 15.263C23.5693 15.1739 23.6311 15.051 23.6437 14.9185C23.6437 14.7896 23.4705 14.8319 23.4282 14.7452C23.386 14.6586 23.6437 14.7452 23.6437 14.6163C23.6437 14.4874 23.4282 14.6163 23.3417 14.5297C23.3417 14.4874 23.3417 14.4874 23.386 14.445C23.6889 14.3325 24.0092 14.2738 24.3323 14.2718H24.4189H24.3323ZM23.9417 1.4505V3.94868C20.6953 4.04398 17.5983 5.33537 15.2451 7.57506L13.4792 5.80821C16.2961 3.08881 20.0362 1.53513 23.9498 1.45856M12.9275 6.32597L14.6934 8.09081C12.4552 10.4455 11.1646 13.544 11.069 16.7921H8.57414C8.69409 12.8882 10.2417 9.16412 12.9235 6.32597" fill="#212427"/>
</g>
<defs>
<clipPath id="clip0_1_2413">
<rect width="129.119" height="40" fill="white" transform="translate(0.462402 0.417236)"/>
</clipPath>
</defs>
</svg>
