<svg width="114" height="41" viewBox="0 0 114 41" fill="none" xmlns="http://www.w3.org/2000/svg">
<g clip-path="url(#clip0_1_2430)">
<path d="M41.1697 0.417236H0.875427V40.464H41.1697V0.417236Z" fill="#212427"/>
<path d="M8.44574 8.09692H11.0971V30.0483H15.0322V32.7732H8.44574V8.09692Z" fill="white"/>
<path d="M26.9418 8.09692H33.6429V10.7874H29.5932V18.6988H33.3779V21.5778H29.5932V30.0422H33.6429V32.7702H26.9418V8.09692Z" fill="white"/>
<path d="M17.3437 32.764V30.1255V30.0643L18.1744 30.0612C19.2651 30.0551 21.1102 29.3003 21.3826 27.5935C21.6458 25.9391 21.4508 24.7412 19.3124 21.1104L19.2839 21.0495C17.7948 18.6363 16.3828 16.5283 16.91 13.2209C17.4828 9.62645 20.3115 8.04276 22.8845 8.09014L23.7157 8.08922V10.728V10.7889L22.8845 10.792C21.7944 10.7978 19.8975 11.5409 19.6248 13.248C19.3616 14.9018 19.5437 15.9717 21.6269 19.5557L21.6826 19.6474C23.2309 22.124 24.6247 24.3138 24.0974 27.6209C23.5244 31.2163 20.7483 32.8114 18.1747 32.7643L17.3437 32.764Z" fill="white"/>
<path d="M49.7327 10.5094H48.6918V10.0891H51.2534V10.5094H50.2125V13.4153H49.7327V10.5094Z" fill="#212427"/>
<path d="M51.7426 10.0891H52.2231V11.4805H53.8224V10.0891H54.302V13.4162H53.8224V11.9011H52.2231V13.4162H51.7426V10.0891Z" fill="#212427"/>
<path d="M55.1879 10.0891H57.0628V10.51H55.6675V11.4799H56.939V11.9005H55.6675V12.9943H57.0628V13.4156H55.1879V10.0891Z" fill="#212427"/>
<path d="M59.8286 8.07349H60.6007V12.7418H62.8474V13.4119H59.8286V8.07349Z" fill="#212427"/>
<path d="M63.3129 11.1918C63.3129 12.537 64.0968 13.4822 65.4609 13.4822C66.8265 13.4822 67.6088 12.5367 67.6088 11.1918C67.6088 9.87915 66.8184 8.90161 65.4609 8.90161C64.1027 8.9013 63.3129 9.87915 63.3129 11.1918ZM63.9869 11.1918C63.9869 10.2915 64.473 9.45361 65.4606 9.46007C66.4475 9.45361 66.9354 10.2915 66.9354 11.1918C66.9354 12.0736 66.4921 12.9238 65.4606 12.9238C64.4287 12.9238 63.9869 12.0736 63.9869 11.1918Z" fill="#212427"/>
<path d="M68.4926 8.97974H69.3616L71.3405 12.5444H71.3532V8.97974H71.991V13.412H71.173L69.1434 9.76189H69.1307V13.412H68.4926V8.97974Z" fill="#212427"/>
<path d="M73.0668 13.412H74.3795C75.8479 13.412 76.7516 12.6434 76.7516 11.1573C76.7516 9.79204 75.7002 8.97974 74.3795 8.97974H73.0668V13.412ZM73.703 9.5382H74.4495C75.368 9.5382 76.0763 10.148 76.0763 11.1834C76.0763 12.3265 75.4711 12.8539 74.3739 12.8539H73.703V9.5382Z" fill="#212427"/>
<path d="M77.4653 11.1918C77.4653 12.537 78.2482 13.4822 79.6132 13.4822C80.9776 13.4822 81.7611 12.5367 81.7611 11.1918C81.7611 9.87915 80.972 8.90161 79.6132 8.90161C78.2541 8.9013 77.4653 9.87915 77.4653 11.1918ZM78.1386 11.1918C78.1386 10.2915 78.6265 9.45361 79.6129 9.46007C80.5986 9.45361 81.0868 10.2915 81.0868 11.1918C81.0868 12.0736 80.6447 12.9238 79.6129 12.9238C78.5801 12.9238 78.1386 12.0736 78.1386 11.1918Z" fill="#212427"/>
<path d="M82.6489 8.97974H83.5173L85.4958 12.5444H85.5095V8.97974H86.146V13.412H85.329L83.2984 9.76189H83.2863V13.412H82.6489V8.97974Z" fill="#212427"/>
<path d="M91.5652 8.87943C91.1736 8.7265 90.9581 8.65758 90.556 8.65758C90.1238 8.65758 89.6145 8.8102 89.6145 9.36835C89.6145 10.3927 91.925 10.1554 91.925 11.9127C91.925 13.0502 91.0429 13.5 89.9622 13.5C89.5829 13.5 89.2161 13.3927 88.8628 13.2785L88.939 12.5696C89.2015 12.6767 89.6591 12.829 90.0547 12.829C90.4931 12.829 91.1123 12.5847 91.1123 11.9582C91.1123 10.7665 88.8012 11.0948 88.8012 9.43696C88.8012 8.4905 89.5523 7.98743 90.5238 7.98743C90.8804 7.98743 91.3033 8.04804 91.6705 8.1742L91.5652 8.87943Z" fill="#212427"/>
<path d="M95.9109 9.70746C95.6298 9.54253 95.3159 9.46007 94.9892 9.46007C93.9602 9.46007 93.275 10.1964 93.275 11.1918C93.275 12.2324 94.0298 12.9238 94.9573 12.9238C95.2771 12.9238 95.7059 12.8413 95.9298 12.7078L95.9694 13.3241C95.6298 13.4635 95.2146 13.4825 94.9515 13.4825C93.5385 13.4825 92.602 12.581 92.602 11.1733C92.602 9.80869 93.5961 8.90161 94.9573 8.90161C95.3032 8.90161 95.6428 8.95207 95.9623 9.08746L95.9109 9.70746Z" fill="#212427"/>
<path d="M96.7543 8.97974H97.3902V10.8299H99.5267V8.97974H100.164V13.412H99.5267V11.3887H97.3902V13.412H96.7543V8.97974Z" fill="#212427"/>
<path d="M101.086 11.1918C101.086 12.537 101.871 13.4822 103.234 13.4822C104.6 13.4822 105.383 12.5367 105.383 11.1918C105.383 9.87915 104.592 8.90161 103.234 8.90161C101.877 8.9013 101.086 9.87915 101.086 11.1918ZM101.762 11.1918C101.762 10.2915 102.248 9.45361 103.235 9.46007C104.222 9.45361 104.709 10.2915 104.709 11.1918C104.709 12.0736 104.267 12.9238 103.235 12.9238C102.204 12.9238 101.762 12.0736 101.762 11.1918Z" fill="#212427"/>
<path d="M106.047 11.1918C106.047 12.537 106.831 13.4822 108.195 13.4822C109.56 13.4822 110.343 12.5367 110.343 11.1918C110.343 9.87915 109.553 8.90161 108.195 8.90161C106.837 8.9013 106.047 9.87915 106.047 11.1918ZM106.722 11.1918C106.722 10.2915 107.209 9.45361 108.196 9.46007C109.183 9.45361 109.671 10.2915 109.671 11.1918C109.671 12.0736 109.228 12.9238 108.196 12.9238C107.163 12.9238 106.722 12.0736 106.722 11.1918Z" fill="#212427"/>
<path d="M111.227 8.97974H111.866V12.8536H113.732V13.412H111.227V8.97974Z" fill="#212427"/>
<path d="M48.7114 32.7542H49.4838V30.6194H50.2373C51.2054 30.6194 52.1326 30.2015 52.1326 29.0148C52.1326 27.7978 51.2209 27.4172 50.1215 27.4172H48.7114V32.7542ZM49.4838 28.0859H50.1367C50.6138 28.0859 51.3212 28.3317 51.3212 29.0059C51.3212 29.7108 50.7215 29.9483 50.2448 29.9483H49.4838V28.0859Z" fill="#212427"/>
<path d="M52.7036 30.5355C52.7036 31.8798 53.4868 32.8257 54.8518 32.8257C56.2168 32.8257 57 31.8798 57 30.5355C57 29.2214 56.2103 28.2454 54.8518 28.2454C53.4933 28.2454 52.7036 29.222 52.7036 30.5355ZM53.3778 30.5355C53.3778 29.6346 53.8654 28.7977 54.8521 28.8029C55.8388 28.7967 56.3261 29.6346 56.3261 30.5355C56.3261 31.4164 55.8843 32.2669 54.8521 32.2669C53.8199 32.2669 53.3778 31.4174 53.3778 30.5355Z" fill="#212427"/>
<path d="M57.9184 28.3235H58.5558V32.1973H60.4227V32.7552H57.9184V28.3235Z" fill="#212427"/>
<path d="M61.7788 28.3235H61.1411V32.7546H61.7788V28.3235Z" fill="#212427"/>
<path d="M63.818 28.8826H62.4301V28.3235H65.843V28.8826H64.4551V32.7558H63.818V28.8826Z" fill="#212427"/>
<path d="M67.1382 28.3235H66.5004V32.7546H67.1382V28.3235Z" fill="#212427"/>
<path d="M71.3643 29.0509C71.0838 28.8863 70.7699 28.8029 70.4424 28.8029C69.413 28.8029 68.7288 29.5401 68.7288 30.5355C68.7288 31.5758 69.4833 32.2669 70.412 32.2669C70.7318 32.2669 71.16 32.1835 71.3835 32.0524L71.4225 32.6675C71.0838 32.8063 70.6677 32.826 70.4061 32.826C68.9932 32.826 68.0551 31.9251 68.0551 30.5164C68.0551 29.1515 69.0492 28.2454 70.412 28.2454C70.7572 28.2454 71.0959 28.2949 71.4157 28.4312L71.3643 29.0509Z" fill="#212427"/>
<path d="M71.7114 32.7552H72.3819L72.8349 31.6373H75.0206L75.4738 32.7552H76.1713L74.2859 28.3235H73.6153L71.7114 32.7552ZM74.8156 31.1161H73.0392L73.9324 28.9179L74.8156 31.1161Z" fill="#212427"/>
<path d="M76.8286 28.3235H77.4654V32.1973H79.3328V32.7552H76.8286V28.3235Z" fill="#212427"/>
<path d="M84.3921 28.223C84.0014 28.0713 83.7869 28.0015 83.3847 28.0015C82.9513 28.0015 82.4405 28.1541 82.4405 28.7122C82.4405 29.7365 84.7519 29.4999 84.7519 31.2571C84.7519 32.395 83.8705 32.8442 82.7884 32.8442C82.4098 32.8442 82.0429 32.7371 81.6909 32.623L81.7668 31.9138C82.0265 32.0215 82.4869 32.1728 82.8816 32.1728C83.3225 32.1728 83.9404 31.9291 83.9404 31.3027C83.9404 30.111 81.6293 30.4384 81.6293 28.7811C81.6293 27.8359 82.3792 27.3313 83.3528 27.3313C83.7076 27.3313 84.1327 27.3925 84.4989 27.5178L84.3921 28.223Z" fill="#212427"/>
<path d="M88.7771 29.0509C88.4954 28.8863 88.1818 28.8029 87.8564 28.8029C86.8264 28.8029 86.1428 29.5401 86.1428 30.5355C86.1428 31.5758 86.8973 32.2669 87.8255 32.2669C88.1453 32.2669 88.5734 32.1835 88.7969 32.0524L88.8353 32.6675C88.4954 32.8063 88.0806 32.826 87.819 32.826C86.406 32.826 85.4692 31.9251 85.4692 30.5164C85.4692 29.1515 86.4633 28.2454 87.8255 28.2454C88.17 28.2454 88.51 28.2949 88.8285 28.4312L88.7771 29.0509Z" fill="#212427"/>
<path d="M90.2619 28.3235H89.6254V32.7546H90.2619V28.3235Z" fill="#212427"/>
<path d="M91.4418 28.3235H93.9399V28.8826H92.079V30.173H93.773V30.7321H92.079V32.1973H93.9399V32.7552H91.4418V28.3235Z" fill="#212427"/>
<path d="M94.9731 28.3235H95.8424L97.8213 31.8875H97.834V28.3235H98.4711V32.7552H97.6544L95.6241 29.1053H95.6093V32.7552H94.9731V28.3235Z" fill="#212427"/>
<path d="M102.689 29.0509C102.407 28.8863 102.093 28.8029 101.768 28.8029C100.738 28.8029 100.054 29.5401 100.054 30.5355C100.054 31.5758 100.807 32.2669 101.735 32.2669C102.055 32.2669 102.484 32.1835 102.707 32.0524L102.746 32.6675C102.407 32.8063 101.991 32.826 101.729 32.826C100.316 32.826 99.3793 31.9251 99.3793 30.5164C99.3793 29.1515 100.374 28.2454 101.735 28.2454C102.08 28.2454 102.42 28.2949 102.74 28.4312L102.689 29.0509Z" fill="#212427"/>
<path d="M103.563 28.3235H106.061V28.8826H104.199V30.173H105.894V30.7321H104.199V32.1973H106.061V32.7552H103.563V28.3235Z" fill="#212427"/>
<path d="M48.7036 21.4016C48.7036 22.4084 49.2911 23.1204 50.3159 23.1204C51.3391 23.1204 51.927 22.4087 51.927 21.4016C51.927 20.4176 51.3341 19.6829 50.3159 19.6829C49.2967 19.6829 48.7036 20.4176 48.7036 21.4016ZM49.21 21.4016C49.21 20.7278 49.575 20.0989 50.3159 20.1044C51.0558 20.0989 51.4205 20.7275 51.4205 21.4016C51.4205 22.0635 51.0886 22.6998 50.3159 22.6998C49.5419 22.6998 49.21 22.0635 49.21 21.4016Z" fill="#212427"/>
<path d="M52.9926 19.7454H54.7718V20.1657H53.4722V21.1352H54.7142V21.5558H53.4722V23.0709H52.9926V19.7454Z" fill="#212427"/>
<path d="M58.4536 17.7297H61.4652V18.3999H59.2263V19.9645H61.2652V20.6347H59.2263V22.3984H61.4652V23.0682H58.4536V17.7297Z" fill="#212427"/>
<path d="M66.3171 19.3631C66.0354 19.1982 65.7209 19.1157 65.3958 19.1157C64.3661 19.1157 63.6828 19.852 63.6828 20.8474C63.6828 21.8877 64.437 22.5794 65.3648 22.5794C65.6837 22.5794 66.1131 22.496 66.3363 22.3631L66.3744 22.9794C66.0354 23.1185 65.6196 23.1382 65.3574 23.1382C63.9457 23.1382 63.0082 22.2372 63.0082 20.8292C63.0082 19.4643 64.0023 18.5579 65.3648 18.5579C65.71 18.5579 66.049 18.608 66.3685 18.744L66.3171 19.3631Z" fill="#212427"/>
<path d="M67.4653 20.848C67.4653 22.1926 68.2476 23.1379 69.6132 23.1379C70.9779 23.1379 71.7611 22.1926 71.7611 20.848C71.7611 19.5348 70.9711 18.5579 69.6132 18.5579C68.2553 18.5579 67.4653 19.5351 67.4653 20.848ZM68.1392 20.848C68.1392 19.9471 68.6262 19.1099 69.6141 19.1163C70.6008 19.1099 71.0865 19.9471 71.0865 20.848C71.0865 21.7299 70.6444 22.58 69.6141 22.58C68.581 22.58 68.1392 21.7299 68.1392 20.848Z" fill="#212427"/>
<path d="M73.2114 18.636H74.0798L76.059 22.1997H76.0717V18.636H76.7097V23.0671H75.8921L73.8624 19.4178H73.8497V23.0671H73.2114V18.636Z" fill="#212427"/>
<path d="M78.1567 20.8558C78.1567 22.2004 78.9387 23.1457 80.3046 23.1457C81.6705 23.1457 82.4525 22.2004 82.4525 20.8558C82.4525 19.5426 81.6625 18.5657 80.3046 18.5657C78.9467 18.5657 78.1567 19.5429 78.1567 20.8558ZM78.8319 20.8558C78.8319 19.9549 79.3182 19.1177 80.3055 19.1241C81.2925 19.1177 81.7792 19.9549 81.7792 20.8558C81.7792 21.7377 81.3371 22.5878 80.3055 22.5878C79.273 22.5878 78.8319 21.7377 78.8319 20.8558Z" fill="#212427"/>
<path d="M83.9184 18.636H84.9719L86.3725 22.3224L87.7505 18.636H88.8037V23.0671H88.1656V19.2317H88.1529L86.6747 23.0671H86.0477L84.5698 19.2317H84.5561V23.0671H83.9184V18.636Z" fill="#212427"/>
<path d="M91.1463 18.636H90.5082V23.068H91.1463V18.636Z" fill="#212427"/>
<path d="M95.907 19.3631C95.6259 19.1982 95.3113 19.1157 94.9856 19.1157C93.9559 19.1157 93.2724 19.852 93.2724 20.8474C93.2724 21.8877 94.0271 22.5794 94.9537 22.5794C95.2742 22.5794 95.7023 22.496 95.9262 22.3631L95.9649 22.9794C95.6259 23.1185 95.2101 23.1382 94.9479 23.1382C93.5352 23.1382 92.5981 22.2372 92.5981 20.8292C92.5981 19.4643 93.5928 18.5579 94.9537 18.5579C95.2986 18.5579 95.6379 18.608 95.9584 18.744L95.907 19.3631Z" fill="#212427"/>
<path d="M99.3157 19.3016C98.9906 19.1751 98.8098 19.1176 98.4764 19.1176C98.1166 19.1176 97.691 19.2449 97.691 19.7086C97.691 20.5576 99.6138 20.3612 99.6138 21.8203C99.6138 22.764 98.8813 23.1394 97.9807 23.1394C97.6656 23.1394 97.3609 23.0511 97.0674 22.9545L97.1318 22.3652C97.3473 22.4539 97.73 22.5806 98.0578 22.5806C98.4253 22.5806 98.9405 22.3776 98.9405 21.8572C98.9405 20.8674 97.0161 21.1397 97.0161 19.7637C97.0161 18.9769 97.6411 18.5579 98.4507 18.5579C98.7482 18.5579 99.1002 18.6089 99.4048 18.7182L99.3157 19.3016Z" fill="#212427"/>
<path d="M102.852 23.0724H103.357L103.697 22.2346H105.338L105.678 23.0724H106.2L104.786 19.7454H104.282L102.852 23.0724ZM105.183 21.8438H103.849L104.518 20.1931L105.183 21.8438Z" fill="#212427"/>
<path d="M107.086 19.7454H107.74L109.218 22.4275H109.229V19.7454H109.708V23.0721H109.095L107.576 20.3358H107.566V23.0721H107.086V19.7454Z" fill="#212427"/>
<path d="M110.946 23.0712H111.933C113.033 23.0712 113.711 22.4931 113.711 21.3801C113.711 20.3567 112.922 19.7454 111.933 19.7454H110.946V23.0712ZM111.426 20.1663H111.986C112.676 20.1663 113.205 20.6223 113.205 21.3995C113.205 22.2555 112.752 22.6509 111.928 22.6509H111.426V20.1663Z" fill="#212427"/>
<path d="M113.71 28.3079H109.239V32.7525H113.71V28.3079Z" fill="#212427"/>
</g>
<defs>
<clipPath id="clip0_1_2430">
<rect width="113" height="40" fill="white" transform="translate(0.875427 0.417236)"/>
</clipPath>
</defs>
</svg>
